REM DIRINDEX 1\3,1\2\4,1\2\5,1\2\6
REM DIRNAME folder01,folder02,folder03,folder04,folder05,folder06
TITLE ""
FILE "102.mp3" MP3
  TRACK 01 AUDIO
    TITLE "4:cjc137_4203"
    INDEX 01 00:00:00
  TRACK 02 AUDIO
    TITLE "0:"
    INDEX 01 00:01:34
  TRACK 03 AUDIO
    TITLE "6:cjc137_4204"
    INDEX 01 00:01:40
  TRACK 04 AUDIO
    TITLE "0:"
    INDEX 01 00:02:49
  TRACK 05 AUDIO
    TITLE "5:cjc137_4205"
    INDEX 01 00:02:57
  TRACK 06 AUDIO
    TITLE "0:"
    INDEX 01 00:04:15
  TRACK 07 AUDIO
    TITLE "4:cjc137_4206"
    INDEX 01 00:05:22
  TRACK 08 AUDIO
    TITLE "0:"
    INDEX 01 00:06:47
  TRACK 09 AUDIO
    TITLE "6:cjc137_4207"
    INDEX 01 00:06:53
  TRACK 10 AUDIO
    TITLE "0:"
    INDEX 01 00:08:09
  TRACK 11 AUDIO
    TITLE "5:cjc137_4208"
    INDEX 01 00:08:15
  TRACK 12 AUDIO
    TITLE "0:"
    INDEX 01 00:09:42
  TRACK 13 AUDIO
    TITLE "4:cjc137_4209"
    INDEX 01 00:10:49
  TRACK 14 AUDIO
    TITLE "0:"
    INDEX 01 00:11:66
  TRACK 15 AUDIO
    TITLE "6:cjc137_4210"
    INDEX 01 00:11:70
  TRACK 16 AUDIO
    TITLE "0:"
    INDEX 01 00:13:12
  TRACK 17 AUDIO
    TITLE "5:cjc137_4211"
    INDEX 01 00:13:18
  TRACK 18 AUDIO
    TITLE "0:"
    INDEX 01 00:14:33
  TRACK 19 AUDIO
    TITLE "4:cjc137_4212"
    INDEX 01 00:15:40
  TRACK 20 AUDIO
    TITLE "0:"
    INDEX 01 00:16:48
  TRACK 21 AUDIO
    TITLE "6:cjc137_4213"
    INDEX 01 00:16:55
  TRACK 22 AUDIO
    TITLE "0:"
    INDEX 01 00:18:23
  TRACK 23 AUDIO
    TITLE "5:cjc137_4214"
    INDEX 01 00:18:33
  TRACK 24 AUDIO
    TITLE "0:"
    INDEX 01 00:19:38
  TRACK 25 AUDIO
    TITLE "4:cjc137_4215"
    INDEX 01 00:20:53
  TRACK 26 AUDIO
    TITLE "0:"
    INDEX 01 00:21:74
  TRACK 27 AUDIO
    TITLE "6:cjc137_4216"
    INDEX 01 00:22:09
  TRACK 28 AUDIO
    TITLE "0:"
    INDEX 01 00:23:42
  TRACK 29 AUDIO
    TITLE "5:cjc137_4217"
    INDEX 01 00:23:53
  TRACK 30 AUDIO
    TITLE "0:"
    INDEX 01 00:25:01
  TRACK 31 AUDIO
    TITLE "4:cjc137_4218"
    INDEX 01 00:26:13
  TRACK 32 AUDIO
    TITLE "0:"
    INDEX 01 00:27:30
  TRACK 33 AUDIO
    TITLE "6:cjc137_4219"
    INDEX 01 00:27:38
  TRACK 34 AUDIO
    TITLE "0:"
    INDEX 01 00:28:35
  TRACK 35 AUDIO
    TITLE "5:cjc137_4220"
    INDEX 01 00:28:45
  TRACK 36 AUDIO
    TITLE "0:"
    INDEX 01 00:29:62
  TRACK 37 AUDIO
    TITLE "4:cjc137_4221"
    INDEX 01 00:30:71
  TRACK 38 AUDIO
    TITLE "0:"
    INDEX 01 00:31:57
  TRACK 39 AUDIO
    TITLE "6:cjc137_4222"
    INDEX 01 00:32:00
  TRACK 40 AUDIO
    TITLE "0:"
    INDEX 01 00:33:36
  TRACK 41 AUDIO
    TITLE "5:cjc137_4223"
    INDEX 01 00:33:44
  TRACK 42 AUDIO
    TITLE "0:"
    INDEX 01 00:34:30
  TRACK 43 AUDIO
    TITLE "4:cjc137_4224"
    INDEX 01 00:35:49
  TRACK 44 AUDIO
    TITLE "0:"
    INDEX 01 00:37:08
  TRACK 45 AUDIO
    TITLE "6:cjc137_4225"
    INDEX 01 00:37:16
  TRACK 46 AUDIO
    TITLE "0:"
    INDEX 01 00:38:37
  TRACK 47 AUDIO
    TITLE "5:cjc137_4226"
    INDEX 01 00:38:45
  TRACK 48 AUDIO
    TITLE "0:"
    INDEX 01 00:40:03
  TRACK 49 AUDIO
    TITLE "4:cjc137_4227"
    INDEX 01 00:41:12
  TRACK 50 AUDIO
    TITLE "0:"
    INDEX 01 00:42:33
  TRACK 51 AUDIO
    TITLE "6:cjc137_4228"
    INDEX 01 00:42:45
  TRACK 52 AUDIO
    TITLE "0:"
    INDEX 01 00:44:09
  TRACK 53 AUDIO
    TITLE "5:cjc137_4229"
    INDEX 01 00:44:14
  TRACK 54 AUDIO
    TITLE "0:"
    INDEX 01 00:45:35
  TRACK 55 AUDIO
    TITLE "4:cjc137_4230"
    INDEX 01 00:46:47
  TRACK 56 AUDIO
    TITLE "0:"
    INDEX 01 00:47:60
  TRACK 57 AUDIO
    TITLE "6:cjc137_4231"
    INDEX 01 00:47:70
  TRACK 58 AUDIO
    TITLE "0:"
    INDEX 01 00:49:39
  TRACK 59 AUDIO
    TITLE "5:cjc137_4232"
    INDEX 01 00:49:49
  TRACK 60 AUDIO
    TITLE "0:"
    INDEX 01 00:50:60
  TRACK 61 AUDIO
    TITLE "4:cjc137_4233"
    INDEX 01 00:51:71
  TRACK 62 AUDIO
    TITLE "0:"
    INDEX 01 00:53:23
  TRACK 63 AUDIO
    TITLE "6:cjc137_4234"
    INDEX 01 00:53:29
  TRACK 64 AUDIO
    TITLE "0:"
    INDEX 01 00:54:54
  TRACK 65 AUDIO
    TITLE "5:cjc137_4235"
    INDEX 01 00:54:60
  TRACK 66 AUDIO
    TITLE "0:"
    INDEX 01 00:56:12
  TRACK 67 AUDIO
    TITLE "4:cjc137_4236"
    INDEX 01 00:57:21
  TRACK 68 AUDIO
    TITLE "0:"
    INDEX 01 00:58:36
  TRACK 69 AUDIO
    TITLE "6:cjc137_4237"
    INDEX 01 00:58:50
  TRACK 70 AUDIO
    TITLE "0:"
    INDEX 01 00:59:63
  TRACK 71 AUDIO
    TITLE "5:cjc137_4238"
    INDEX 01 00:59:69
  TRACK 72 AUDIO
    TITLE "0:"
    INDEX 01 01:01:09
  TRACK 73 AUDIO
    TITLE "4:cjc137_4239"
    INDEX 01 01:02:26
  TRACK 74 AUDIO
    TITLE "0:"
    INDEX 01 01:03:29
  TRACK 75 AUDIO
    TITLE "6:cjc137_4240"
    INDEX 01 01:03:35
  TRACK 76 AUDIO
    TITLE "0:"
    INDEX 01 01:04:33
  TRACK 77 AUDIO
    TITLE "5:cjc137_4241"
    INDEX 01 01:04:43
  TRACK 78 AUDIO
    TITLE "0:"
    INDEX 01 01:05:44
  TRACK 79 AUDIO
    TITLE "4:cjc137_4242"
    INDEX 01 01:06:55
  TRACK 80 AUDIO
    TITLE "0:"
    INDEX 01 01:08:03
  TRACK 81 AUDIO
    TITLE "6:cjc137_4243"
    INDEX 01 01:08:09
  TRACK 82 AUDIO
    TITLE "0:"
    INDEX 01 01:09:03
  TRACK 83 AUDIO
    TITLE "5:cjc137_4244"
    INDEX 01 01:09:12
  TRACK 84 AUDIO
    TITLE "0:"
    INDEX 01 01:10:35
